<svg aria-hidden="true" style="position: absolute; width: 0; height: 0; overflow: hidden;" version="1.1" xmlns="http://www.w3.org/2000/svg" xmlns:xlink="http://www.w3.org/1999/xlink">
<defs>
<symbol id="Facebook" viewBox="0 0 32 32">
<path fill="#fff" style="fill: var(--color1, #fff)" d="M13.040 29.333l-0.040-11.667h-5v-5h5v-3.333c0-4.493 2.787-6.667 6.8-6.667 1.92 0 3.573 0.133 4.053 0.2v4.707h-2.787c-2.173 0-2.6 1.040-2.6 2.56v2.533h6.2l-1.667 5h-4.533v11.667h-5.427z"></path>
</symbol>
<symbol id="Pinterest" viewBox="0 0 32 32">
<path fill="#fff" style="fill: var(--color1, #fff)" d="M16 2.667c-3.099 0.011-6.098 1.101-8.481 3.084s-4 4.733-4.574 7.778c-0.574 3.046-0.070 6.196 1.427 8.91s3.892 4.822 6.775 5.961c-0.133-1.053-0.227-2.667 0.040-3.827l1.56-6.627c0 0-0.4-0.8-0.4-1.973 0-1.853 1.080-3.227 2.427-3.227 1.133 0 1.693 0.853 1.693 1.867 0 1.147-0.733 2.853-1.12 4.44-0.32 1.333 0.667 2.413 1.987 2.413 2.373 0 4.187-2.493 4.187-6.093 0-3.2-2.293-5.413-5.573-5.413-0.779-0.034-1.557 0.090-2.287 0.365s-1.397 0.695-1.96 1.234-1.011 1.188-1.317 1.905c-0.306 0.717-0.463 1.489-0.462 2.269 0 1.147 0.44 2.373 0.987 3.040 0.107 0.133 0.12 0.253 0.080 0.387l-0.373 1.507c-0.053 0.24-0.2 0.307-0.44 0.187-1.68-0.787-2.72-3.2-2.72-5.173 0-4.2 3.067-8.053 8.827-8.053 4.613 0 8.227 3.28 8.227 7.693 0 4.6-2.907 8.293-6.933 8.293-1.333 0-2.613-0.707-3.040-1.533l-0.84 3.16c-0.393 1.237-0.949 2.416-1.653 3.507 1.832 0.562 3.763 0.723 5.663 0.471s3.722-0.91 5.345-1.93c1.622-1.020 3.006-2.377 4.056-3.98s1.743-3.413 2.031-5.307c0.288-1.894 0.164-3.828-0.364-5.671s-1.445-3.549-2.692-5.004c-1.246-1.455-2.792-2.625-4.531-3.429s-3.631-1.224-5.547-1.231z"></path>
</symbol>
<symbol id="Twitter" viewBox="0 0 32 32">
<path fill="#fff" style="fill: var(--color1, #fff)" d="M29.333 7.84c-1 0.493-2 0.667-3.173 0.827 1.173-0.667 2-1.667 2.333-3-1.079 0.642-2.261 1.093-3.493 1.333-1.069-1.050-2.502-1.647-4-1.667-2.84 0-5.333 2.507-5.333 5.507 0 0.493 0 0.827 0.173 1.16-2.184-0.082-4.325-0.631-6.279-1.608s-3.678-2.361-5.054-4.059c-0.496 0.861-0.728 1.848-0.667 2.84 0.015 0.896 0.251 1.774 0.686 2.558s1.056 1.448 1.808 1.935c-0.84 0-1.667-0.333-2.507-0.667 0 2.667 1.84 4.84 4.333 5.333-0.493 0.173-1 0.173-1.493 0.173-0.333 0-0.667 0-1-0.173 0.667 2.173 2.667 3.84 5.173 3.84-1.936 1.555-4.357 2.381-6.84 2.333h-1.333c2.5 1.572 5.381 2.434 8.333 2.493 10 0 15.507-8.333 15.507-15.507v-0.667c1.145-0.782 2.109-1.8 2.827-2.987z"></path>
</symbol>
<symbol id="Instagram" viewBox="0 0 32 32">
<path fill="#fff" style="fill: var(--color1, #fff)" d="M17.36 2.667c2.4 0 2.907 0.027 4.133 0.080 1.413 0.067 2.387 0.293 3.227 0.627 0.88 0.333 1.627 0.8 2.36 1.533 0.747 0.733 1.2 1.48 1.547 2.36 0.333 0.84 0.547 1.813 0.613 3.24 0.067 1.267 0.080 1.76 0.080 4.427v2.133c0 2.667-0.013 3.16-0.080 4.427-0.021 1.102-0.228 2.193-0.613 3.227-0.347 0.88-0.8 1.627-1.533 2.36-0.747 0.747-1.493 1.2-2.373 1.547-0.84 0.333-1.813 0.547-3.227 0.613-1.267 0.067-1.773 0.080-4.44 0.080h-2.12c-2.667 0-3.16-0.013-4.44-0.080-1.102-0.021-2.193-0.229-3.227-0.613-0.889-0.334-1.694-0.857-2.36-1.533-0.683-0.669-1.211-1.479-1.547-2.373-0.385-1.033-0.592-2.124-0.613-3.227-0.065-1.377-0.092-2.755-0.080-4.133v-2.733c0-2.4 0.027-2.907 0.080-4.133 0.067-1.413 0.293-2.387 0.613-3.227 0.347-0.88 0.8-1.627 1.547-2.36 0.66-0.683 1.467-1.208 2.36-1.533 1.033-0.389 2.123-0.601 3.227-0.627 1.227-0.053 1.733-0.080 4.133-0.080h2.733zM17.387 5.067h-2.787c-2.307 0-2.8 0.027-4 0.080-1.293 0.053-2 0.267-2.467 0.453-0.627 0.24-1.067 0.533-1.533 1s-0.76 0.907-1 1.533c-0.173 0.467-0.4 1.173-0.453 2.48-0.053 1.2-0.080 1.68-0.080 4v2.773c0 2.32 0.027 2.8 0.080 4 0.053 1.293 0.267 2 0.453 2.467 0.24 0.627 0.533 1.067 1 1.533s0.907 0.76 1.533 1c0.467 0.187 1.173 0.4 2.48 0.453 1.293 0.067 1.76 0.080 4.64 0.080h1.48c2.893 0 3.347-0.013 4.653-0.080 1.293-0.053 2-0.267 2.467-0.453 0.627-0.24 1.067-0.533 1.533-1s0.76-0.907 1-1.533c0.187-0.467 0.4-1.173 0.453-2.467 0.067-1.307 0.080-1.76 0.080-4.653v-1.467c0-2.893-0.013-3.36-0.080-4.667-0.053-1.293-0.267-2-0.453-2.467-0.215-0.579-0.556-1.103-1-1.533-0.43-0.444-0.954-0.786-1.533-1-0.791-0.289-1.625-0.442-2.467-0.453-1.332-0.064-2.666-0.090-4-0.080zM16 9.147c1.816 0 3.557 0.721 4.841 2.005s2.005 3.025 2.005 4.841c0 1.816-0.721 3.557-2.005 4.841s-3.025 2.005-4.841 2.005c-1.816 0-3.557-0.721-4.841-2.005s-2.005-3.025-2.005-4.841c0-1.816 0.721-3.557 2.005-4.841s3.026-2.005 4.841-2.005zM16 11.547c-1.179 0-2.31 0.468-3.144 1.302s-1.302 1.965-1.302 3.144 0.469 2.31 1.302 3.144c0.834 0.834 1.965 1.302 3.144 1.302s2.31-0.469 3.144-1.302c0.834-0.834 1.302-1.965 1.302-3.144s-0.469-2.31-1.302-3.144c-0.834-0.834-1.965-1.302-3.144-1.302zM23.107 7.28c0.424 0 0.831 0.169 1.131 0.469s0.469 0.707 0.469 1.131-0.169 0.831-0.469 1.131c-0.3 0.3-0.707 0.469-1.131 0.469s-0.831-0.169-1.131-0.469c-0.3-0.3-0.469-0.707-0.469-1.131s0.169-0.831 0.469-1.131c0.3-0.3 0.707-0.469 1.131-0.469z"></path>
</symbol>
<symbol id="Youtube" viewBox="0 0 32 32">
<path fill="#fff" style="fill: var(--color1, #fff)" d="M13.373 20.507v-9.013l7.92 4.507-7.92 4.507zM30.973 8.667c-0.17-0.643-0.506-1.23-0.974-1.703s-1.052-0.814-1.693-0.99c-2.36-0.64-11.84-0.64-11.84-0.64s-9.467 0-11.827 0.64c-0.641 0.176-1.225 0.518-1.693 0.99s-0.804 1.060-0.974 1.703c-0.64 2.373-0.64 7.333-0.64 7.333s0 4.96 0.627 7.333c0.171 0.645 0.509 1.233 0.979 1.706s1.057 0.813 1.701 0.988c2.36 0.64 11.84 0.64 11.84 0.64s9.467 0 11.827-0.64c0.641-0.176 1.225-0.518 1.693-0.991s0.804-1.060 0.974-1.703c0.64-2.373 0.64-7.333 0.64-7.333s0-4.96-0.627-7.333h-0.013z"></path>
</symbol>
<symbol id="frame" viewBox="0 0 60 32">
<path fill="#fff" style="fill: var(--color1, #fff)" d="M60.308 32h-60.308l30.154-32 30.154 32zM16.378 16.161l4.107 4.356 4.107-4.356-4.107-4.369-4.107 4.369zM20.485 30.776l4.107-4.356-4.107-4.369-4.107 4.369 4.107 4.356zM39.887 30.776l4.107-4.356-4.107-4.369-4.171 4.369 4.171 4.356zM35.037 6.65c-0.025 0.042-0.057 0.082-0.097 0.116-1.277 1.379-2.571 2.758-3.88 4.124-0.113 0.116 0 0.193 0 0.296l3.783 4.021 0.178 0.168 4.107-4.343-4.091-4.382zM10.817 30.776l0.162-0.168 3.783-4.008c0.060-0.050 0.094-0.117 0.094-0.187s-0.034-0.137-0.094-0.187c-1.148-1.186-2.264-2.397-3.395-3.596l-0.55-0.58-4.107 4.369 4.107 4.356zM21.213 11.019l4.107 4.356 0.129-0.116 3.864-4.098c0.129-0.142 0-0.219 0-0.322l-3.945-4.163-4.155 4.343zM21.213 21.329l4.107 4.356 0.21-0.206c1.229-1.289 2.474-2.578 3.719-3.957 0.035-0.025 0.063-0.056 0.082-0.091s0.029-0.072 0.029-0.109-0.010-0.075-0.029-0.109c-0.019-0.034-0.047-0.065-0.082-0.091-1.164-1.224-2.328-2.449-3.476-3.686l-0.453-0.464-4.107 4.356zM40.615 21.329l4.107 4.356 4.107-4.356-4.107-4.356-4.107 4.356zM35.037 16.96v0.090l-3.897 4.137c-0.129 0.116-0.081 0.193 0 0.296l3.622 3.866c0.097 0.116 0.21 0.232 0.339 0.361l4.107-4.356-4.171-4.395zM15.667 25.659c0.019-0.038 0.047-0.073 0.081-0.103l3.897-4.137c0.113-0.129 0-0.193 0-0.296l-3.832-4.021c-0.050-0.058-0.11-0.11-0.178-0.155l-4.091 4.343 4.123 4.369zM39.823 20.504l4.107-4.356-4.107-4.343-4.107 4.356 4.107 4.343zM30.121 10.194l4.107-4.356-4.042-4.266h-0.081l-3.945 4.227c-0.024 0.031-0.037 0.067-0.037 0.103s0.013 0.072 0.037 0.103l3.961 4.188zM30.121 20.504l4.107-4.356-4.074-4.356-4.107 4.369 4.074 4.343zM30.121 30.814l4.107-4.356-4.107-4.369-4.074 4.33 4.074 4.395zM49.523 30.814l4.107-4.356-4.091-4.33h-0.081l-3.961 4.163c-0.129 0.142 0 0.206 0 0.296l3.234 3.493 0.792 0.735zM2.328 31.059h7.373l-3.654-3.866-3.719 3.866zM50.671 31.059h7.308l-3.654-3.866-3.654 3.866zM28.99 31.059l-3.67-3.866-3.67 3.866h7.34zM41.003 31.059h7.308l-3.654-3.866-3.654 3.866zM38.642 31.059l-3.654-3.866-3.654 3.866h7.308zM19.24 31.059l-3.654-3.866-3.654 3.866h7.308z"></path>
</symbol>
</defs>
</svg>
